HIERARCHY
ROOT hip
{
  OFFSET 0 0 0
  CHANNELS 6 Xposition Yposition Zposition Zrotation Yrotation Xrotation
  JOINT abdomen
  {
    OFFSET 0 20.6881 -0.73152
    CHANNELS 3 Zrotation Xrotation Yrotation
    JOINT chest
    {
      OFFSET 0 11.7043 -0.48768
      CHANNELS 3 Zrotation Xrotation Yrotation
      JOINT neck
      {
        OFFSET 0 22.1894 -2.19456
        CHANNELS 3 Zrotation Xrotation Yrotation
        JOINT head
        {
          OFFSET -0.24384 7.07133 1.2192
          CHANNELS 3 Zrotation Xrotation Yrotation
          JOINT leftEye
          {
            OFFSET 4.14528 8.04674 8.04672
            CHANNELS 3 Zrotation Xrotation Yrotation
            End Site
            {
              OFFSET 1 0 0
            }
          }
          JOINT rightEye
          {
            OFFSET -3.6576 8.04674 8.04672
            CHANNELS 3 Zrotation Xrotation Yrotation
            End Site
            {
              OFFSET 1 0 0
            }
          }
        }
      }
      JOINT rCollar
      {
        OFFSET -2.68224 19.2634 -4.8768
        CHANNELS 3 Zrotation Xrotation Yrotation
        JOINT rShldr
        {
          OFFSET -8.77824 -1.95073 1.46304
          CHANNELS 3 Zrotation Xrotation Yrotation
          JOINT rForeArm
          {
            OFFSET -28.1742 -1.7115 0.48768
            CHANNELS 3 Zrotation Xrotation Yrotation
            JOINT rHand
            {
              OFFSET -22.5879 0.773209 7.07136
              CHANNELS 3 Zrotation Xrotation Yrotation
              JOINT rThumb1
              {
                OFFSET -1.2192 -0.487915 3.41376
                CHANNELS 3 Zrotation Xrotation Yrotation
                JOINT rThumb2
                {
                  OFFSET -3.37035 -0.52449 3.41376
                  CHANNELS 3 Zrotation Xrotation Yrotation
                  End Site
                  {
                    OFFSET -1.78271 -1.18214 1.43049
                  }
                }
              }
              JOINT rIndex1
              {
                OFFSET -7.75947 0.938293 5.60832
                CHANNELS 3 Zrotation Xrotation Yrotation
                JOINT rIndex2
                {
                  OFFSET -2.54057 -0.884171 1.56538
                  CHANNELS 3 Zrotation Xrotation Yrotation
                  End Site
                  {
                    OFFSET -1.62519 -0.234802 1.16502
                  }
                }
              }
              JOINT rMid1
              {
                OFFSET -8.24714 1.18213 3.41376
                CHANNELS 3 Zrotation Xrotation Yrotation
                JOINT rMid2
                {
                  OFFSET -3.10165 -0.590103 1.0647
                  CHANNELS 3 Zrotation Xrotation Yrotation
                  End Site
                  {
                    OFFSET -2.48547 -0.328903 0.83742
                  }
                }
              }
              JOINT rRing1
              {
                OFFSET -8.82822 0.546677 1.51678
                CHANNELS 3 Zrotation Xrotation Yrotation
                JOINT rRing2
                {
                  OFFSET -2.60934 -0.819778 -0.0198488
                  CHANNELS 3 Zrotation Xrotation Yrotation
                  End Site
                  {
                    OFFSET -2.33842 -0.294052 0.168128
                  }
                }
              }
              JOINT rPinky1
              {
                OFFSET -8.27202 -0.0477905 -0.4584
                CHANNELS 3 Zrotation Xrotation Yrotation
                JOINT rPinky2
                {
                  OFFSET -1.82734 -0.647385 -0.700984
                  CHANNELS 3 Zrotation Xrotation Yrotation
                  End Site
                  {
                    OFFSET -1.69225 -0.51767 -0.607171
                  }
                }
              }
            }
          }
        }
      }
      JOINT lCollar
      {
        OFFSET 2.68224 19.2634 -4.8768
        CHANNELS 3 Zrotation Xrotation Yrotation
        JOINT lShldr
        {
          OFFSET 8.77824 -1.95073 1.46304
          CHANNELS 3 Zrotation Xrotation Yrotation
          JOINT lForeArm
          {
            OFFSET 28.1742 -1.7115 0.48768
            CHANNELS 3 Zrotation Xrotation Yrotation
            JOINT lHand
            {
              OFFSET 22.5879 0.773209 7.07136
              CHANNELS 3 Zrotation Xrotation Yrotation
              JOINT lThumb1
              {
                OFFSET 1.2192 -0.487915 3.41376
                CHANNELS 3 Zrotation Xrotation Yrotation
                JOINT lThumb2
                {
                  OFFSET 3.37035 -0.52449 3.41376
                  CHANNELS 3 Zrotation Xrotation Yrotation
                  End Site
                  {
                    OFFSET 1.78271 -1.18214 1.43049
                  }
                }
              }
              JOINT lIndex1
              {
                OFFSET 7.75947 0.938293 5.60832
                CHANNELS 3 Zrotation Xrotation Yrotation
                JOINT lIndex2
                {
                  OFFSET 2.54057 -0.884171 1.56538
                  CHANNELS 3 Zrotation Xrotation Yrotation
                  End Site
                  {
                    OFFSET 1.62519 -0.234802 1.16502
                  }
                }
              }
              JOINT lMid1
              {
                OFFSET 8.24714 1.18213 3.41376
                CHANNELS 3 Zrotation Xrotation Yrotation
                JOINT lMid2
                {
                  OFFSET 3.10165 -0.590103 1.0647
                  CHANNELS 3 Zrotation Xrotation Yrotation
                  End Site
                  {
                    OFFSET 2.48547 -0.328903 0.83742
                  }
                }
              }
              JOINT lRing1
              {
                OFFSET 8.82822 0.546677 1.51678
                CHANNELS 3 Zrotation Xrotation Yrotation
                JOINT lRing2
                {
                  OFFSET 2.60934 -0.819778 -0.0198488
                  CHANNELS 3 Zrotation Xrotation Yrotation
                  End Site
                  {
                    OFFSET 2.33842 -0.294052 0.168128
                  }
                }
              }
              JOINT lPinky1
              {
                OFFSET 8.27202 -0.0477905 -0.4584
                CHANNELS 3 Zrotation Xrotation Yrotation
                JOINT lPinky2
                {
                  OFFSET 1.82734 -0.647385 -0.700984
                  CHANNELS 3 Zrotation Xrotation Yrotation
                  End Site
                  {
                    OFFSET 1.69225 -0.51767 -0.607171
                  }
                }
              }
            }
          }
        }
      }
    }
  }
  JOINT rButtock
  {
    OFFSET -8.77824 4.35084 1.2192
    CHANNELS 3 Zrotation Xrotation Yrotation
    JOINT rThigh
    {
      OFFSET 0 -1.70687 -2.19456
      CHANNELS 3 Zrotation Xrotation Yrotation
      JOINT rShin
      {
        OFFSET 0 -36.8199 0.73152
        CHANNELS 3 Zrotation Xrotation Yrotation
        JOINT rFoot
        {
          OFFSET 0.73152 -45.1104 -5.12064
          CHANNELS 3 Zrotation Xrotation Yrotation
          End Site
          {
            OFFSET -1.1221 -3.69964 12.103
          }
        }
      }
    }
  }
  JOINT lButtock
  {
    OFFSET 8.77824 4.35084 1.2192
    CHANNELS 3 Zrotation Xrotation Yrotation
    JOINT lThigh
    {
      OFFSET 0 -1.70687 -2.19456
      CHANNELS 3 Zrotation Xrotation Yrotation
      JOINT lShin
      {
        OFFSET 0 -36.8199 0.73152
        CHANNELS 3 Zrotation Xrotation Yrotation
        JOINT lFoot
        {
          OFFSET -0.73152 -45.1104 -5.12064
          CHANNELS 3 Zrotation Xrotation Yrotation
          End Site
          {
            OFFSET 1.1221 -3.69964 12.103
          }
        }
      }
    }
  }
}
MOTION
Frames:	7
Frame Time:	0.00833333
6.12054 85.2343 -179.814 0.0 0.0 0.0 0.705189 -0.00371385 0.0199543 0.194579 -0.00526913 0.033714 1.44448e-14 0.0 -4.84538e-16 4.30089e-14 3.18055e-15 -1.48157e-15 -0.0 0.0 0.0 -0.0 0.0 0.0 7.20479e-15 -1.0871e-17 -4.96962e-17 1.51893e-13 -2.85753e-16 -3.57812e-15 2.60304e-12 -7.81621e-13 -1.39944e-13 2.97379e-11 7.35727e-13 -9.57347e-13 7.01518e-11 -1.01244e-13 -2.35043e-12 1.21138e-10 -1.65389e-13 -4.07747e-12 7.01579e-11 -1.00585e-13 -2.36315e-12 7.73091 5.47488 0.417314 7.01521e-11 -1.01579e-13 -2.34725e-12 2.90554 0.965183 0.102902 7.01605e-11 -1.01181e-13 -2.35202e-12 10.2786 0.731801 0.0259123 7.01499e-11 -1.0138e-13 -2.34725e-12 2.22167 -0.733487 -0.20892 7.00878e-15 -1.16475e-17 -4.47265e-16 1.49161e-13 -6.21202e-17 -5.36719e-15 2.59742e-12 7.67706e-13 -1.08139e-13 2.97332e-11 -8.12657e-13 -9.66889e-13 7.01387e-11 -1.00211e-13 -2.35679e-12 1.21134e-10 -1.7175e-13 -4.05998e-12 7.01328e-11 -9.93923e-14 -2.35361e-12 -7.73091 5.47488 -0.417314 7.01388e-11 -1.00287e-13 -2.35679e-12 -2.90554 0.965183 -0.102902 7.0132e-11 -1.00287e-13 -2.356e-12 -10.2786 0.731801 -0.0259123 7.01412e-11 -9.97899e-14 -2.36315e-12 -2.22167 -0.733487 0.20892 -2.03217e-16 0.0 -3.88251e-19 1.03768 -4.8484 -0.0878816 -0.00129063 3.22991 0.00171993 -0.507991 1.61857 0.0909495 2.03217e-16 0.0 3.88251e-19 0.0358226 -2.16336 0.0186164 0.00864535 -1.63356 0.0730531 0.498157 3.79688 -0.134158
6.06042 83.474 -182.161 -1.8819 4.9395 7.7662 1.57153 -1.09346 -1.15377 0.59114 -0.0235452 -0.308834 -1.39342 -0.634658 -0.559376 1.40976 -3.20107 -0.519138 -0.0 0.0 0.0 -0.0 0.0 0.0 1.05737e-15 2.22552e-14 5.26306e-14 21.4454 -2.95225 -1.73533 -2.4703 -0.911892 4.05686 -2.81256e-06 -0.0137856 -0.00193744 -1.95706e-10 4.1486e-10 -3.42891e-10 -3.38788e-10 7.17573e-10 -5.92374e-10 -1.95702e-10 4.1486e-10 -3.42903e-10 7.73091 5.47488 0.417314 -1.95706e-10 4.14859e-10 -3.42889e-10 2.90554 0.965183 0.102902 -1.95699e-10 4.1486e-10 -3.42893e-10 10.2786 0.731801 0.0259123 -1.95708e-10 4.1486e-10 -3.42888e-10 2.22167 -0.733487 -0.20892 9.04911e-16 2.22561e-14 5.22839e-14 -22.2183 5.35954 0.939659 4.50535 -2.10729 -6.97049 -0.00469127 1.51942 -0.213269 -3.08477e-10 -1.19361e-10 2.14252e-10 -5.32384e-10 -2.04863e-10 3.72342e-10 -3.08484e-10 -1.1936e-10 2.14256e-10 -7.73091 5.47488 -0.417314 -3.08476e-10 -1.1936e-10 2.14249e-10 -2.90554 0.965183 -0.102902 -3.08483e-10 -1.19361e-10 2.1425e-10 -10.2786 0.731801 -0.0259123 -3.08475e-10 -1.19361e-10 2.14243e-10 -2.22167 -0.733487 0.20892 -2.03217e-16 0.0 -3.88251e-19 1.95236 -8.12417 -0.165965 0.0219017 9.98489 0.144475 -1.02799 -3.56982 -4.08418 2.03217e-16 0.0 3.88251e-19 0.777953 -6.23318 -1.58262 -0.00669735 6.17972 -0.0626047 0.550107 -2.03476 0.626846
5.98434 83.47 -182.168 -2.0159 5.0259 7.794 2.44497 -2.24255 -2.39316 1.00944 -0.0422458 -0.670238 -2.88615 -1.30509 -1.14749 2.8464 -6.59006 -1.06335 -0.0 0.0 0.0 -0.0 0.0 0.0 -5.67159e-15 5.00874e-14 1.1314e-13 43.9169 -6.06706 -3.58262 -4.94175 -1.86067 8.34888 -9.02527e-06 -0.0329326 -0.00462836 -4.98653e-10 8.89735e-10 -7.404e-10 -8.62898e-10 1.53893e-09 -1.27906e-09 -4.9865e-10 8.89735e-10 -7.4041e-10 7.73091 5.47488 0.417314 -4.98653e-10 8.89734e-10 -7.40398e-10 2.90554 0.965183 0.102902 -4.98647e-10 8.89735e-10 -7.40401e-10 10.2786 0.731801 0.0259123 -4.98655e-10 8.89736e-10 -7.40397e-10 2.22167 -0.733487 -0.20892 -5.77756e-15 5.00901e-14 1.12844e-13 -45.9018 11.0175 1.96113 8.71367 -4.22999 -14.3672 0.00266743 3.12677 -0.439389 -7.34435e-10 -2.46964e-10 4.66025e-10 -1.26754e-09 -4.23744e-10 8.09761e-10 -7.34442e-10 -2.46963e-10 4.6603e-10 -7.73091 5.47488 -0.417314 -7.34432e-10 -2.46961e-10 4.66019e-10 -2.90554 0.965183 -0.102902 -7.3444e-10 -2.46964e-10 4.66021e-10 -10.2786 0.731801 -0.0259123 -7.34433e-10 -2.46963e-10 4.66014e-10 -2.22167 -0.733487 0.20892 -2.03217e-16 0.0 -3.88251e-19 2.91111 -11.5907 -0.248554 0.00837055 17.1289 0.304428 -2.40531 -8.97431 -8.5846 2.03217e-16 0.0 3.88251e-19 1.31414 -10.5214 -3.30924 0.0182643 14.4358 -0.211857 0.774509 -8.19628 1.44429
5.99641 83.4745 -182.106 -1.9818 5.1348 7.725 3.17018 -3.26751 -3.50631 1.38361 -0.0600894 -0.993931 -4.21746 -1.90325 -1.67895 4.05318 -9.60005 -1.57707 -0.0 0.0 0.0 -0.0 0.0 0.0 -1.12375e-14 6.67874e-14 1.57991e-13 63.795 -8.82406 -5.26154 -7.02637 -2.68088 12.1826 -1.12347e-05 -0.0413569 -0.00581231 -7.27423e-10 1.24478e-09 -1.02397e-09 -1.25864e-09 2.15305e-09 -1.76897e-09 -7.27421e-10 1.24478e-09 -1.02398e-09 7.73091 5.47488 0.417314 -7.27423e-10 1.24478e-09 -1.02397e-09 2.90554 0.965183 0.102902 -7.27417e-10 1.24478e-09 -1.02398e-09 10.2786 0.731801 0.0259123 -7.27425e-10 1.24478e-09 -1.02397e-09 2.22167 -0.733487 -0.20892 -1.13028e-14 6.67917e-14 1.57746e-13 -67.2002 16.061 2.92075 12.0089 -5.94839 -21.0157 0.019951 4.558 -0.641611 -1.06571e-09 -3.57883e-10 6.47469e-10 -1.83942e-09 -6.14244e-10 1.12515e-09 -1.06572e-09 -3.57882e-10 6.47475e-10 -7.73091 5.47488 -0.417314 -1.06571e-09 -3.57879e-10 6.4746e-10 -2.90554 0.965183 -0.102902 -1.06571e-09 -3.57883e-10 6.47463e-10 -10.2786 0.731801 -0.0259123 -1.06571e-09 -3.57883e-10 6.47456e-10 -2.22167 -0.733487 0.20892 -2.03217e-16 0.0 -3.88251e-19 3.75401 -14.6756 -0.32848 -0.0408207 23.4943 0.461703 -4.3702 -13.6409 -12.7768 2.03217e-16 0.0 3.88251e-19 1.56123 -14.3293 -4.91009 0.0797045 21.8059 -0.358415 1.1282 -13.6886 2.20988
5.96232 83.4779 -182.088 -2.0207 5.0646 7.677 3.61864 -3.98724 -4.29906 1.64784 -0.0757973 -1.22335 -5.1194 -2.32139 -2.068 4.80544 -11.6653 -1.99655 -0.0 0.0 0.0 -0.0 0.0 0.0 -1.38957e-14 5.56568e-14 1.63699e-13 77.5727 -10.7175 -6.46658 -8.414 -3.23182 14.8591 -6.47641e-07 -0.0229742 -0.00322882 -7.70749e-10 1.30026e-09 -1.02271e-09 -1.33346e-09 2.2491e-09 -1.76693e-09 -7.70749e-10 1.30026e-09 -1.02272e-09 7.73091 5.47488 0.417314 -7.70749e-10 1.30026e-09 -1.02271e-09 2.90554 0.965183 0.102902 -7.70745e-10 1.30026e-09 -1.02271e-09 10.2786 0.731801 0.0259123 -7.70752e-10 1.30026e-09 -1.02271e-09 2.22167 -0.733487 -0.20892 -1.39351e-14 5.56624e-14 1.635e-13 -82.1447 19.5851 3.62923 14.0696 -7.01084 -25.6943 0.0379166 5.54919 -0.78236 -1.16028e-09 -4.27094e-10 6.53092e-10 -2.00309e-09 -7.33792e-10 1.13545e-09 -1.16028e-09 -4.27094e-10 6.53098e-10 -7.73091 5.47488 -0.417314 -1.16027e-09 -4.2709e-10 6.53082e-10 -2.90554 0.965183 -0.102902 -1.16028e-09 -4.27095e-10 6.53086e-10 -10.2786 0.731801 -0.0259123 -1.16027e-09 -4.27094e-10 6.53079e-10 -2.22167 -0.733487 0.20892 -2.03217e-16 0.0 -3.88251e-19 4.32605 -16.8066 -0.396717 -0.0993717 27.9137 0.583475 -6.16755 -16.7598 -15.8558 2.03217e-16 0.0 3.88251e-19 1.58414 -16.9765 -6.08435 0.14795 26.9614 -0.473525 1.46807 -17.5177 2.7798
5.98693 83.4696 -182.046 -1.881 5.3383 7.6761 3.71373 -4.27798 -4.64484 1.75927 -0.08936 -1.322 -5.39242 -2.49549 -2.2605 4.94191 -12.396 -2.28641 -0.0 0.0 0.0 -0.0 0.0 0.0 -1.40534e-14 -2.18691e-14 1.01026e-13 82.9921 -11.3898 -6.97292 -8.9482 -3.44478 15.918 -7.32193e-05 0.00406756 0.000572711 -4.44676e-10 7.99585e-10 -3.91281e-10 -7.68796e-10 1.38337e-09 -6.76642e-10 -4.44677e-10 7.99585e-10 -3.91291e-10 7.73091 5.47488 0.417314 -4.44676e-10 7.99585e-10 -3.9128e-10 2.90554 0.965183 0.102902 -4.44673e-10 7.99585e-10 -3.91282e-10 10.2786 0.731801 0.0259123 -4.4468e-10 7.99587e-10 -3.91275e-10 2.22167 -0.733487 -0.20892 -1.40826e-14 -2.18622e-14 1.00874e-13 -88.0054 21.0023 3.91594 14.839 -7.40042 -27.5628 0.0459199 5.9139 -0.834334 -8.27131e-10 -4.76838e-10 2.82657e-10 -1.42963e-09 -8.22007e-10 4.93567e-10 -8.27137e-10 -4.76837e-10 2.82661e-10 -7.73091 5.47488 -0.417314 -8.27126e-10 -4.76834e-10 2.82648e-10 -2.90554 0.965183 -0.102902 -8.27136e-10 -4.76838e-10 2.82652e-10 -10.2786 0.731801 -0.0259123 -8.27128e-10 -4.76837e-10 2.82647e-10 -2.22167 -0.733487 0.20892 -2.03217e-16 0.0 -3.88251e-19 4.52059 -17.5917 -0.448545 -0.130127 29.6037 0.633967 -6.97592 -17.9301 -17.1313 2.03217e-16 0.0 3.88251e-19 1.51777 -18.0247 -6.59111 0.182007 29.0226 -0.523518 1.6252 -19.0296 3.01484
5.96348 83.4018 -182.038 -1.8801 5.2583 7.6576 3.56692 -4.26365 -4.67011 1.76157 -0.101352 -1.32719 -5.2141 -2.49507 -2.31229 4.65711 -12.1749 -2.4784 -0.0 0.0 0.0 -0.0 0.0 0.0 -1.23502e-14 -1.45514e-13 -9.84295e-15 82.4822 -11.1981 -6.96934 -8.89919 -3.42664 15.8189 -0.000204458 0.0386692 0.00543742 1.40026e-10 -9.18264e-11 6.7925e-10 2.43587e-10 -1.58077e-10 1.17195e-09 1.40025e-10 -9.18253e-11 6.79237e-10 7.73091 5.47488 0.417314 1.40026e-10 -9.18264e-11 6.79251e-10 2.90554 0.965183 0.102902 1.40028e-10 -9.1826e-11 6.7925e-10 10.2786 0.731801 0.0259123 1.40021e-10 -9.18243e-11 6.79259e-10 2.22167 -0.733487 -0.20892 -1.23807e-14 -1.45506e-13 -9.94854e-15 -87.3302 20.9181 3.8793 14.7811 -7.37962 -27.4098 0.0443637 5.83167 -0.822627 -1.9306e-10 -5.10823e-10 -3.50205e-10 -3.37543e-10 -8.84603e-10 -6.03438e-10 -1.93065e-10 -5.10822e-10 -3.50204e-10 -7.73091 5.47488 -0.417314 -1.93057e-10 -5.10821e-10 -3.50211e-10 -2.90554 0.965183 -0.102902 -1.93068e-10 -5.10824e-10 -3.50208e-10 -10.2786 0.731801 -0.0259123 -1.93059e-10 -5.10822e-10 -3.5021e-10 -2.22167 -0.733487 0.20892 -2.03217e-16 0.0 -3.88251e-19 4.44872 -17.4161 -0.487417 -0.130037 29.3445 0.626883 -6.89641 -17.775 -17.0468 2.03217e-16 0.0 3.88251e-19 1.44616 -17.9392 -6.59809 0.179559 28.8734 -0.519856 1.61096 -18.8886 2.9931
